<svg xmlns="http://www.w3.org/2000/svg" width="256" height="256" viewBox="0 0 100 100"><rect width="100" height="100" rx="20" fill="#222222"></rect><path fill="#fff" d="M20.17 78.13L1.68 78.13L1.68 24.80L19.11 24.80Q27.79 24.80 32.17 28.39Q36.54 31.98 36.54 39.01L36.54 39.01Q36.54 42.75 34.42 45.62Q32.29 48.50 28.63 50.07L28.63 50.07Q32.95 51.28 35.46 54.67Q37.97 58.06 37.97 62.74L37.97 62.74Q37.97 69.92 33.32 74.02Q28.67 78.13 20.17 78.13L20.17 78.13ZM20.43 53.19L8.71 53.19L8.71 72.38L20.32 72.38Q25.23 72.38 28.06 69.83Q30.90 67.29 30.90 62.82L30.90 62.82Q30.90 53.19 20.43 53.19L20.43 53.19ZM8.71 30.59L8.71 47.55L19.33 47.55Q23.94 47.55 26.71 45.24Q29.47 42.93 29.47 38.98L29.47 38.98Q29.47 34.58 26.91 32.59Q24.35 30.59 19.11 30.59L19.11 30.59L8.71 30.59ZM54.67 38.50L54.67 78.13L47.89 78.13L47.89 38.50L54.67 38.50ZM47.34 27.99L47.34 27.99Q47.34 26.34 48.35 25.21Q49.36 24.07 51.34 24.07Q53.31 24.07 54.34 25.21Q55.36 26.34 55.36 27.99Q55.36 29.64 54.34 30.74Q53.31 31.84 51.34 31.84Q49.36 31.84 48.35 30.74Q47.34 29.64 47.34 27.99ZM90.37 78.13L76.57 59.78L72.32 64.21L72.32 78.13L65.55 78.13L65.55 21.88L72.32 21.88L72.32 55.90L75.95 51.54L88.29 38.50L96.53 38.50L81.11 55.05L98.32 78.13L90.37 78.13Z"></path></svg>